<svg xmlns="http://www.w3.org/2000/svg" width="1405" height="1080" viewBox="0 0 1405 1080" fill="none">
  <path d="M642.838 313.033L650.99 312.482C651.52 312.449 652.05 312.415 652.58 312.379L660.573 303.094C658.906 299.407 657.228 295.741 655.487 292.046L655.053 292.501C655.808 296.568 655.108 300.77 653.076 304.367C651.044 307.963 647.811 310.723 643.945 312.16C642.604 312.664 641.218 313.035 639.805 313.27L640.806 313.194L642.838 313.033Z" fill="url(#paint0_linear_322_281)"/>
  <path fill-rule="evenodd" clip-rule="evenodd" d="M898.984 441.386L943.155 595.716L944.468 600.616L939.494 601.949L915.339 608.421L891.286 615.154C875.211 619.653 859.175 624.217 843.177 628.845C827.179 633.473 811.178 638.167 795.172 642.925L771.231 650.076L747.301 657.385L738.267 660.126L736.207 650.175C734.566 641.934 732.852 633.71 731.065 625.503L749.669 616.849C750.699 623.827 751.671 630.814 752.586 637.811L767.074 634.443L791.413 628.658C804.442 625.553 817.432 622.375 830.433 619.194C833.63 618.413 836.828 617.63 840.027 616.849C856.236 612.89 872.375 608.79 888.536 604.651L912.733 598.456L932.091 593.269L896.126 448.659L898.984 441.386ZM639.569 348.012C648.357 367.036 656.619 386.348 664.357 405.95C661.667 398.942 660.512 376.738 676.928 342.022C675.781 339.111 674.623 336.202 673.454 333.297C666.823 336.205 651.637 341.437 643.945 339.099C636.252 336.761 635.635 332.929 636.288 331.306L652.58 312.379C656.465 312.12 660.37 311.805 664.283 311.46C663.064 308.671 661.827 305.882 660.573 303.094L652.58 312.379C652.05 312.415 651.52 312.449 650.99 312.482L642.838 313.033L640.806 313.194L639.805 313.27C641.218 313.035 642.604 312.664 643.945 312.16C647.811 310.723 651.044 307.963 653.076 304.367C655.108 300.77 655.808 296.568 655.053 292.501L655.487 292.046L662.274 284.922L678.199 268.207C675.072 268.63 671.944 269.071 668.815 269.512C661.557 270.535 654.297 271.558 647.039 272.362L639.229 273.237L637.251 273.479L636.288 273.577C634.229 273.756 632.203 274.202 630.259 274.904C627.045 276.113 624.162 278.067 621.847 280.607C619.532 283.148 617.849 286.202 616.938 289.521C616.011 292.781 615.838 296.212 616.433 299.551C616.874 301.774 617.632 303.922 618.684 305.928C621.089 310.375 623.512 315.01 625.875 319.66C630.618 329.02 635.16 338.466 639.569 348.012ZM843.177 234.129C901.311 219.465 958.907 202.716 1015.85 183.913C1035.98 177.368 1056.04 170.617 1076.03 163.659C1096.02 156.701 1115.94 149.569 1135.8 142.263C1145.7 138.586 1155.59 134.879 1165.44 131.12L1180.03 125.289L1180.95 125.042C1185.3 123.274 1190 122.516 1194.68 122.824C1199.37 123.132 1203.93 124.498 1208.02 126.819C1212.11 129.141 1215.63 132.358 1218.31 136.232C1220.99 140.105 1222.76 144.533 1223.49 149.186C1223.71 150.315 1223.83 151.46 1223.87 152.608L1224.07 154.57L1224.85 162.494L1227.93 194.107L1231.5 225.653C1241.24 309.568 1255.76 392.865 1274.98 475.135C1284.63 516.141 1295.36 556.783 1307.17 597.06C1308.53 602.139 1310.09 607.132 1311.69 612.147L1316.33 627.172L1321.14 642.15L1323.53 649.643L1326.06 657.066C1332.61 676.989 1339.84 696.6 1347.3 716.186L1350.09 723.508L1353.02 730.759L1355.95 738.011L1358.97 745.209L1362.02 752.428L1365.15 759.594L1368.28 766.73L1371.52 773.834C1372.83 776.749 1374.19 779.615 1375.57 782.522L1375.57 782.537C1376.44 784.355 1377.3 786.189 1378.17 788.062C1380.44 792.931 1382.71 797.35 1385.08 801.933C1389.78 811.114 1394.66 820.149 1399.81 828.76L1400.7 830.186C1404.08 835.799 1405.1 842.522 1403.54 848.883C1401.99 855.243 1397.98 860.72 1392.39 864.113C1389.84 865.657 1387.04 866.733 1384.11 867.292C1375.19 867.867 1376.18 867.453 1376.37 867.376C1376.38 867.373 1376.38 867.371 1376.38 867.369L1376.39 867.365C1376.39 867.365 1376.37 867.369 1376.3 867.381C1376.26 867.388 1376.21 867.398 1376.13 867.413L1375.5 867.295L1374.7 867.188L1373.02 866.998C1370.68 866.728 1368.22 866.49 1365.71 866.268C1360.7 865.816 1355.5 865.479 1350.35 865.195C1343.05 864.763 1335.73 864.529 1328.37 864.294L1328.36 864.294L1328.35 864.294L1328.34 864.293L1328.32 864.293C1325.23 864.194 1322.13 864.095 1319.03 863.981C1298.05 863.583 1276.96 863.855 1255.9 864.629C1234.85 865.403 1213.77 866.665 1192.66 868.542C1171.55 870.42 1150.58 872.678 1129.63 875.505C1087.68 881.151 1046.06 888.632 1004.76 897.948C963.46 907.264 922.571 917.921 882.096 929.919C861.848 935.921 841.697 942.206 821.644 948.775C801.59 955.344 781.668 962.241 761.875 969.465C682.789 998.242 605.6 1031.99 530.767 1070.52L516.747 1077.77L502.776 1085.19C498.136 1087.65 493.526 1090.11 488.821 1092.68L481.869 1096.4L478.416 1098.28L476.689 1099.23C475.785 1099.76 474.84 1100.21 473.863 1100.59C468.057 1103.19 461.734 1104.42 455.377 1104.19C449.02 1103.97 442.796 1102.29 437.178 1099.29C431.56 1096.29 426.697 1092.05 422.958 1086.88C419.219 1081.72 416.703 1075.77 415.602 1069.49C415.088 1065.85 415.108 1066.03 415.141 1066.33C415.16 1066.51 415.184 1066.72 415.102 1066.19L414.71 1064.73L414.055 1061.09L412.709 1053.45L409.848 1037.89L404.648 1006.33C396.523 964.488 388.071 922.659 379.292 880.843C361.726 797.257 343.14 713.912 323.532 630.809C303.844 547.802 283.114 465.074 260.921 382.962C238.728 300.851 215.153 219.301 189.393 139.01C182.926 118.926 176.346 98.9358 169.653 79.0401C162.96 59.1445 156.05 39.3924 148.923 19.7838C134.747 -19.4222 119.839 -58.1438 103.838 -95.5801C95.843 -114.22 87.4745 -132.823 79.0163 -150.57C70.558 -168.317 61.4686 -185.798 52.1793 -201.882C47.5701 -210.029 42.8246 -217.851 38.0937 -225.261C33.3629 -232.672 28.5872 -239.653 23.8685 -245.946C19.6667 -251.609 15.1094 -256.997 10.2244 -262.079C7.42632 -265.22 4.10744 -267.852 0.414988 -269.858L153.261 -438.065C165.465 -425.797 176.525 -412.436 186.302 -398.15C194.502 -386.272 202.062 -373.964 208.95 -361.278C215.347 -349.319 221.274 -337.682 226.607 -326.239C231.94 -314.795 236.883 -303.375 241.411 -292.196C250.617 -269.751 258.605 -247.683 265.977 -225.771C273.349 -203.858 280.096 -182.13 286.476 -160.464C299.071 -117.152 310.299 -74.1783 320.553 -31.2636C330.807 11.651 340.31 54.3827 349.206 97.1168C366.97 182.593 382.771 267.89 397.33 353.2C411.889 438.51 425.377 523.755 438.013 609.036C450.649 694.317 462.53 779.64 473.604 865.051C479.191 907.743 484.547 950.486 489.672 993.281L490.914 1003.96L498.214 1000.86C505.647 997.651 513.12 994.596 520.581 991.545L520.589 991.542L520.643 991.519L520.701 991.496C523.254 990.452 525.805 989.409 528.352 988.361L543.514 982.281L544.457 981.908C545.009 981.69 545.561 981.471 546.113 981.252L547.302 980.781C551.09 979.28 554.877 977.779 558.678 976.328C578.894 968.382 599.247 960.943 619.623 953.594C639.999 946.245 661.181 939.16 681.789 932.678L684.984 931.672C704.528 925.523 724.082 919.37 743.981 913.644C764.964 907.605 785.534 901.933 806.639 896.47C827.744 891.007 848.529 886.015 869.585 881.205C911.715 871.646 954.116 863.337 996.788 856.279C1039.46 849.222 1082.15 843.001 1124.87 837.618C1167.68 832.263 1210.61 827.709 1253.75 824.442C1275.34 822.789 1296.94 821.452 1318.72 820.644C1325.25 820.362 1331.81 820.165 1338.41 820.028C1336.78 817.289 1335.18 814.542 1333.62 811.785C1333.24 811.122 1332.86 810.458 1332.49 809.795C1330.13 805.65 1327.78 801.501 1325.55 797.295L1321.59 790.03L1317.75 782.703L1313.93 775.368L1310.2 768.009L1306.64 760.543L1303.05 753.114L1299.49 745.678L1296.05 738.18C1286.81 718.24 1278.21 698.055 1270.25 677.625L1267.24 669.977L1264.38 662.289C1264.02 661.325 1263.66 660.36 1263.3 659.394C1261.73 655.23 1260.17 651.053 1258.69 646.876C1257.77 644.268 1256.85 641.664 1255.92 639.061C1253.19 631.353 1250.46 623.652 1247.92 615.881C1234.17 574.32 1222.53 532.193 1212.81 489.712C1193.94 404.793 1180.32 318.797 1172 232.214L1168.97 199.819L1168.38 192.154C1164.06 193.663 1159.73 195.156 1155.41 196.632C1135.01 203.636 1114.53 210.405 1093.97 216.936C1073.42 223.468 1052.82 229.768 1032.16 235.837C990.741 248.045 949.044 259.218 907.069 269.355L843.177 234.129ZM1202.34 180.087C1201.52 180.406 1200.68 180.677 1199.82 180.902L1201.33 180.358L1202.34 180.087ZM1165.73 156.682C1165.69 156.401 1165.67 156.374 1165.79 157.442C1165.83 157.502 1165.77 156.964 1165.73 156.682ZM1360.39 854.756C1360.3 854.617 1360.22 854.477 1360.14 854.336C1360.02 854.134 1359.91 853.93 1359.8 853.725C1359.97 853.97 1360.14 854.214 1360.31 854.458C1360.31 854.464 1360.34 854.529 1360.39 854.615C1360.55 854.922 1360.86 855.503 1360.39 854.756ZM1381.7 820.515C1381.2 820.65 1383.94 820.364 1381.19 820.474L1381.7 820.515ZM441.229 1025.86C441.684 1025.66 442.143 1025.46 442.604 1025.28L442.15 1025.48L440.272 1026.34C440.308 1026.31 440.327 1026.3 440.331 1026.29L440.667 1026.13L441.034 1025.95L441.229 1025.86Z" fill="url(#paint1_linear_322_281)"/>
  <defs>
    <linearGradient id="paint0_linear_322_281" x1="-344.627" y1="-409.109" x2="1458.53" y2="1160.69" gradientUnits="userSpaceOnUse">
      <stop stop-color="#F9E315"/>
      <stop offset="1" stop-color="#FFCE00"/>
    </linearGradient>
    <linearGradient id="paint1_linear_322_281" x1="-344.627" y1="-409.109" x2="1458.53" y2="1160.69" gradientUnits="userSpaceOnUse">
      <stop stop-color="#F9E315"/>
      <stop offset="1" stop-color="#FFCE00"/>
    </linearGradient>
  </defs>
</svg>