<svg width="40" height="50" viewBox="0 0 40 50" fill="none" xmlns="http://www.w3.org/2000/svg">
<g id="L - version 2">
<g id="Vers&#195;&#181;es">
<g id="Preto">
<g id="3">
<path id="Vector" d="M33.8435 11.3468C34.5695 11.5242 35.3155 11.6056 36.0625 11.5888H36.2039L36.3443 11.5839C36.4412 11.5839 36.5323 11.5839 36.6262 11.5722L36.9081 11.5509C37.0049 11.5431 37.095 11.5324 37.1889 11.5227C37.5628 11.4819 37.9347 11.4255 38.3008 11.3468C38.6616 11.2717 39.0174 11.1744 39.3663 11.0554H39.374C39.42 11.0417 39.4675 11.0342 39.5154 11.033C39.6439 11.033 39.767 11.0842 39.8579 11.1753C39.9487 11.2664 39.9997 11.39 39.9997 11.5188C40.0002 11.524 40.0002 11.5292 39.9997 11.5343C39.9986 11.5721 39.993 11.6096 39.9832 11.6461V11.6636L39.9677 11.7325L39.9377 11.8705L39.9067 12.0075L39.8796 12.1464C39.8428 12.332 39.8118 12.5156 39.7827 12.7002C39.6625 13.4362 39.5978 14.1803 39.589 14.9261C39.589 15.2972 39.6006 15.6674 39.6258 16.0385C39.6522 16.4078 39.6972 16.7755 39.7605 17.1403C39.7915 17.3229 39.8273 17.5046 39.868 17.6873C39.8883 17.7786 39.9096 17.8699 39.9319 17.9652L39.9687 18.1177L39.9784 18.1624V18.174V18.1906L39.9842 18.2246V18.2411V18.2488V18.2683C39.9842 18.2974 39.9842 18.3256 39.9842 18.3548V18.3752C39.9821 18.404 39.9776 18.4326 39.9706 18.4607C39.9435 18.5707 39.8782 18.6676 39.7865 18.734C39.6948 18.8003 39.5826 18.8319 39.4699 18.823C39.4207 18.8191 39.3723 18.8076 39.3265 18.789L39.3149 18.7842L39.2975 18.7784L39.2384 18.7599L39.2094 18.7502L39.1774 18.7424L39.1135 18.7249C39.0708 18.7123 39.0273 18.7016 38.9827 18.6909L38.849 18.6598L38.5779 18.6044L38.3028 18.552C37.9328 18.495 37.5609 18.4564 37.187 18.4364C37.0001 18.4296 36.8122 18.4208 36.6252 18.4237H36.3434L36.0625 18.4364C35.3104 18.4691 34.5637 18.5808 33.8348 18.7696L33.6537 18.1128C34.4223 17.8903 35.211 17.7445 36.0083 17.6776L36.3066 17.6542C36.4034 17.6474 36.5061 17.6455 36.6059 17.6406C36.8064 17.629 37.0059 17.6338 37.2064 17.6309C37.6064 17.6358 38.0074 17.6533 38.4074 17.6931L38.7086 17.7271C38.8055 17.7397 38.9091 17.7553 39.0098 17.7689L39.1619 17.7951C39.2123 17.8029 39.2636 17.8126 39.3149 17.8233L39.3924 17.8398L39.4312 17.8476L39.4718 17.8573L39.5532 17.8767C39.5648 17.8767 39.5861 17.8865 39.6055 17.8913L39.6626 17.9098L39.6772 17.9146C39.634 17.898 39.5886 17.8875 39.5425 17.8835C39.4402 17.8752 39.338 17.9012 39.252 17.9574C39.1551 18.0203 39.0858 18.118 39.0583 18.2304C39.0516 18.2552 39.0474 18.2806 39.0457 18.3062V18.3188C39.0437 18.3349 39.0437 18.3512 39.0457 18.3674V18.3781V18.3703L39.0389 18.345L39.0021 18.2148C38.974 18.1177 38.9449 18.0264 38.9168 17.9292C38.8616 17.7349 38.8113 17.5406 38.7658 17.3404C38.5874 16.546 38.5016 15.7335 38.5101 14.9193C38.5177 14.1093 38.6099 13.3024 38.7851 12.5117L38.8529 12.2203C38.8762 12.1231 38.9043 12.026 38.9294 11.9288L38.9662 11.7831L39.0089 11.6383L39.0515 11.4945L39.0728 11.4216L39.0786 11.4042V11.3944C39.0701 11.4282 39.0649 11.4627 39.0631 11.4974C39.0611 11.5576 39.0713 11.6176 39.0931 11.6737C39.1149 11.7298 39.1477 11.781 39.1897 11.824C39.2317 11.867 39.282 11.9011 39.3375 11.9241C39.3929 11.9471 39.4525 11.9586 39.5125 11.958C39.5572 11.958 39.6016 11.9511 39.6442 11.9375H39.6394H39.6307C39.2369 12.0416 38.8371 12.1211 38.4335 12.1756C37.6424 12.2864 36.8437 12.3329 36.0451 12.3145L35.7458 12.3048L35.4465 12.2844C35.3496 12.2795 35.247 12.2698 35.1472 12.2591L34.998 12.2446C34.9477 12.2397 34.9012 12.2348 34.8499 12.2271C34.4498 12.1758 34.053 12.1015 33.6614 12.0046L33.8435 11.3468Z" fill="url(#paint0_linear_358_271)"/>
<path id="Vector_2" d="M34.9854 14.8629C35.0173 14.826 35.0502 14.7968 35.0822 14.7658C35.1142 14.7347 35.1471 14.7055 35.1791 14.6773C35.211 14.6492 35.243 14.6229 35.2759 14.5957C35.3089 14.5685 35.3398 14.5442 35.3728 14.5209C35.3883 14.5102 35.4047 14.5209 35.4202 14.5209C35.4363 14.5229 35.4526 14.5229 35.4687 14.5209H37.6818C37.7458 14.5714 37.8097 14.6181 37.8755 14.6793L37.9724 14.7658C38.0044 14.7978 38.0363 14.827 38.0693 14.8629C38.0373 14.8979 38.0053 14.927 37.9724 14.9601L37.8755 15.0465C37.8116 15.1039 37.7477 15.1544 37.6818 15.2039H35.4667C35.4506 15.202 35.4344 15.202 35.4183 15.2039C35.4028 15.2088 35.3863 15.2156 35.3708 15.2039L35.274 15.1301C35.243 15.1058 35.2101 15.0776 35.1771 15.0485L35.0803 14.9601C35.047 14.9293 35.0153 14.8969 34.9854 14.8629Z" fill="url(#paint1_linear_358_271)"/>
</g>
<g id="L">
<path id="Vector_3" d="M21.4759 32.6126L21.567 37.9805V38.1399H21.4052H20.6197L19.8352 38.1486C19.3109 38.1544 18.7872 38.1625 18.2642 38.1729C17.7411 38.1833 17.2175 38.1956 16.6932 38.2098L15.9086 38.2322L15.1231 38.2594L14.8267 38.2691L14.8451 37.9504C15.0189 35.2875 14.9541 32.6144 14.6514 29.9631C14.5759 29.3031 14.4819 28.6476 14.3696 27.9967C14.3134 27.6712 14.2524 27.3477 14.1846 27.0251C14.1507 26.8648 14.1148 26.7045 14.078 26.55C14.0624 26.4806 14.0569 26.4093 14.0616 26.3382C14.0707 26.2321 14.1038 26.1294 14.1584 26.038C14.2131 25.9447 14.2889 25.8657 14.3798 25.8075C14.4707 25.7492 14.5741 25.7134 14.6815 25.7028C14.7461 25.6973 14.8112 25.7003 14.8752 25.7116L14.9052 25.7164L14.9672 25.7252L15.2113 25.7621C15.5357 25.8116 15.8641 25.8476 16.1905 25.8894L16.6835 25.9418L16.9295 25.9681L17.1755 25.9904C17.8332 26.0526 18.4947 26.0876 19.1552 26.1284C21.8096 26.2457 24.4681 26.2286 27.1207 26.0769C27.7845 26.0419 28.4479 26.0001 29.1111 25.9515C29.7742 25.903 30.4367 25.8486 31.0986 25.7883C31.4288 25.7572 31.7591 25.7252 32.0884 25.6912L32.5785 25.6329H32.6086C32.7549 25.6146 32.9036 25.6298 33.0433 25.6772C33.183 25.7247 33.3102 25.8032 33.4155 25.9069C33.5207 26.0106 33.6012 26.1368 33.651 26.2761C33.7008 26.4154 33.7186 26.5642 33.703 26.7113C33.7004 26.7473 33.6949 26.7831 33.6866 26.8182L33.6769 26.8794L33.6362 27.1262L33.4725 28.1104L33.3243 29.0965C32.9378 31.7219 32.7011 34.3672 32.6153 37.0196C32.5747 38.3423 32.5698 39.6626 32.6008 40.9807C32.6008 41.1459 32.6076 41.3101 32.6153 41.4752L32.6337 41.9688L32.658 42.4624L32.6696 42.7091L32.686 42.9549C32.7228 43.6127 32.7829 44.2666 32.8497 44.9214L32.8749 45.1662L32.9049 45.4101L32.935 45.654L32.9679 45.8968L33.0018 46.1407L33.0386 46.3836L33.0754 46.6255L33.1161 46.8674C33.1422 47.0287 33.1732 47.1871 33.2023 47.3532C33.2313 47.5194 33.2643 47.6719 33.2991 47.8303C33.3669 48.147 33.4415 48.4608 33.5277 48.7639L33.5432 48.8145C33.6001 49.0122 33.5765 49.2246 33.4776 49.4049C33.3786 49.5852 33.2124 49.7188 33.0154 49.7763C32.9255 49.8024 32.8317 49.8123 32.7383 49.8055C32.3887 49.7355 32.5369 49.7472 32.4952 49.7443L32.4768 49.7355L32.4536 49.7258L32.4042 49.7064C32.3354 49.6792 32.2628 49.652 32.1882 49.6248C32.04 49.5703 31.885 49.5179 31.731 49.4674C31.4211 49.3644 31.1063 49.273 30.7906 49.1759C30.1571 48.9932 29.515 48.83 28.8699 48.6823C28.2248 48.5347 27.5749 48.4016 26.9192 48.2869C26.2635 48.1723 25.6088 48.0702 24.9501 47.9857C23.6316 47.816 22.3079 47.7046 20.979 47.6515C19.6502 47.5984 18.3229 47.5893 16.9973 47.6243C16.3341 47.6418 15.6716 47.6687 15.0098 47.7049C14.3479 47.7412 13.6874 47.7885 13.0281 47.8468C10.3946 48.0769 7.77815 48.4735 5.19439 49.034L4.71011 49.1399L4.22583 49.2517C4.06505 49.2886 3.90524 49.3255 3.74155 49.3653L3.50038 49.4217L3.38028 49.4508L3.32023 49.4654C3.28848 49.4741 3.25609 49.4803 3.22337 49.4839C3.0261 49.5154 2.82426 49.5014 2.63321 49.4428C2.44217 49.3843 2.26694 49.2829 2.12087 49.1462C1.97481 49.0095 1.86174 48.8412 1.79029 48.6541C1.71884 48.467 1.69088 48.266 1.70854 48.0664C1.73082 47.8837 1.71532 48.0071 1.72016 47.9624V47.9148L1.72985 47.7992L1.75116 47.5563L1.79087 47.0608L1.88966 46.061C1.98329 44.7255 2.06691 43.3876 2.14052 42.0475C2.2871 39.3686 2.40074 36.6887 2.48145 34.0078C2.55894 31.3292 2.60252 28.6506 2.59671 25.9787C2.5909 23.3069 2.5386 20.641 2.40978 17.9954C2.37685 17.3334 2.33972 16.6734 2.2984 16.0153C2.25707 15.3573 2.208 14.7018 2.15117 14.0489C2.03979 12.7441 1.90225 11.448 1.72113 10.182C1.63009 9.55149 1.52742 8.919 1.41507 8.31177C1.30271 7.70454 1.16905 7.10023 1.01796 6.53672C0.944347 6.25205 0.863956 5.97612 0.78066 5.71283C0.697364 5.44953 0.609225 5.19887 0.517212 4.96958C0.435759 4.76361 0.341294 4.56306 0.234392 4.36915C0.175029 4.25111 0.0957258 4.14427 0 4.05339L6.00508 0.192383C6.27562 0.663826 6.50257 1.15913 6.68307 1.67208C6.83531 2.09912 6.96463 2.53404 7.0705 2.97495C7.16735 3.38981 7.25259 3.79107 7.32135 4.18164C7.39012 4.57221 7.44727 4.95889 7.49376 5.33489C7.59061 6.09077 7.65357 6.82527 7.69909 7.55006C7.74462 8.27485 7.7727 8.98895 7.79014 9.6982C7.82016 11.1147 7.81145 12.5099 7.77367 13.8954C7.7359 15.2808 7.67682 16.6546 7.59933 18.0236C7.44339 20.7614 7.22934 23.4779 6.97752 26.1847C6.72569 28.8915 6.4419 31.5876 6.13196 34.2779C5.82202 36.9681 5.48884 39.6536 5.13047 42.3351C4.9529 43.6758 4.7679 45.0163 4.57548 46.3564L4.42729 47.3639L4.35078 47.8711L4.3101 48.1305L4.28782 48.2655L4.27426 48.3433C4.27426 48.319 4.2578 48.4628 4.27426 48.3015C4.32947 47.9255 4.1067 47.4076 3.78417 47.1919C3.65132 47.0899 3.49923 47.016 3.33708 46.9745C3.17494 46.9331 3.00611 46.9251 2.84079 46.951C2.72359 46.9733 2.82626 46.951 2.80786 46.9578L2.87178 46.9471L2.99867 46.9267L3.25146 46.8859C3.41999 46.8587 3.58852 46.8296 3.75802 46.8053L4.26554 46.7275L4.77307 46.6556C5.11207 46.6061 5.45106 46.5653 5.78909 46.5216L6.29855 46.4604C6.46805 46.4409 6.63755 46.4205 6.80705 46.403C7.48504 46.3263 8.16303 46.266 8.84103 46.2087C9.51902 46.1514 10.2193 46.1087 10.8973 46.0795C11.5753 46.0504 12.2533 46.0202 12.939 46.0076C13.6248 45.995 14.295 45.9901 14.9798 45.9959C15.6645 46.0018 16.3358 46.0193 17.0137 46.0445C18.3697 46.097 19.7238 46.1896 21.0759 46.3224C22.428 46.4552 23.774 46.6135 25.1138 46.7975C26.4563 46.9831 27.7958 47.1939 29.1314 47.4455C29.7997 47.5709 30.4661 47.7059 31.1334 47.8584C31.4657 47.9323 31.7988 48.0139 32.1349 48.1004C32.3015 48.1431 32.4697 48.1891 32.6395 48.2383C32.7248 48.2626 32.811 48.2888 32.8991 48.317L32.9679 48.3394L33.0047 48.352L33.0454 48.3666C33.0231 48.3666 33.1897 48.3918 32.8604 48.3258C32.7676 48.3179 32.6743 48.3285 32.5856 48.3568C32.4969 48.3852 32.4147 48.4309 32.3437 48.4911C32.2726 48.5514 32.2141 48.6252 32.1714 48.7081C32.1288 48.7911 32.1029 48.8817 32.0952 48.9748C32.0876 49.0614 32.0961 49.1487 32.1204 49.2322C32.1311 49.2662 32.1204 49.2235 32.1204 49.2225C32.0003 48.8893 31.8947 48.5512 31.7979 48.215C31.7485 48.0469 31.701 47.8788 31.6574 47.7108C31.6138 47.5427 31.5693 47.3746 31.5305 47.2056L31.4695 46.9529L31.4124 46.6994L31.3562 46.4458L31.3029 46.1922L31.2555 45.9367L31.207 45.6821L31.1596 45.4276L31.116 45.1721C30.9978 44.492 30.901 43.8096 30.8254 43.125L30.7964 42.8685L30.7722 42.612C30.7557 42.441 30.7383 42.269 30.7247 42.098C30.6986 41.7551 30.6685 41.4131 30.6501 41.0701C30.5707 39.6973 30.56 38.3245 30.6104 36.9565C30.7285 34.2266 31.0141 31.5065 31.4657 28.8118L31.6371 27.8043L31.825 26.8026L31.8724 26.552L31.885 26.4898C31.885 26.5131 31.8996 26.3926 31.8792 26.5335C31.8576 26.751 31.9192 26.9685 32.0516 27.1421C32.184 27.3157 32.3772 27.4322 32.5921 27.4682C32.6639 27.4818 32.7373 27.4848 32.81 27.4769H32.7771L32.2667 27.5206C31.9277 27.5491 31.5893 27.5747 31.2516 27.5974C30.5755 27.644 29.8992 27.6829 29.2225 27.714C28.5458 27.7451 27.8694 27.7687 27.1933 27.7849C25.8373 27.8186 24.4814 27.8186 23.1254 27.7849C21.7694 27.7512 20.4134 27.6764 19.0574 27.5605C18.8879 27.5459 18.7184 27.5284 18.5489 27.5119C18.3794 27.4954 18.2109 27.4788 18.0414 27.4584L17.5339 27.4002L17.0273 27.3341L16.7745 27.3011L16.5208 27.2641L16.0152 27.1903C15.6781 27.133 15.3372 27.0786 15.005 27.0115L14.7531 26.962L14.6902 26.9503L14.6592 26.9445C14.7039 26.9489 14.749 26.9489 14.7938 26.9445C14.9228 26.9323 15.0433 26.8749 15.1342 26.7823C15.2251 26.6897 15.2805 26.5679 15.2907 26.4383C15.2946 26.3886 15.2917 26.3386 15.282 26.2896C15.3149 26.4636 15.3439 26.6336 15.372 26.8046C15.4276 27.1466 15.476 27.4869 15.5173 27.8257C15.6 28.5064 15.6645 29.1865 15.711 29.866C15.8834 32.5827 15.7798 35.31 15.4021 38.0058L15.1251 37.6978L15.9096 37.724L16.6951 37.7464C17.2191 37.7609 17.7421 37.7716 18.2661 37.7833C18.7901 37.7949 19.3131 37.8018 19.8371 37.8076L20.6216 37.8163H21.4071L21.2483 37.9747L21.3452 32.6068L21.4759 32.6126Z" fill="url(#paint2_linear_358_271)"/>
</g>
</g>
</g>
</g>
<defs>
<linearGradient id="paint0_linear_358_271" x1="36.8335" y1="11.7102" x2="36.8335" y2="18.0633" gradientUnits="userSpaceOnUse">
<stop stop-color="#F9E315"/>
<stop offset="1" stop-color="#FFCE00"/>
</linearGradient>
<linearGradient id="paint1_linear_358_271" x1="34.9854" y1="14.8629" x2="38.0644" y2="14.8629" gradientUnits="userSpaceOnUse">
<stop stop-color="#F9E315"/>
<stop offset="1" stop-color="#FFCE00"/>
</linearGradient>
<linearGradient id="paint2_linear_358_271" x1="-9.33693" y1="-2.97687" x2="32.6109" y2="59.3124" gradientUnits="userSpaceOnUse">
<stop stop-color="#F9E315"/>
<stop offset="1" stop-color="#FFCE00"/>
</linearGradient>
</defs>
</svg>
